<svg xmlns="http://www.w3.org/2000/svg" width="479.186" height="561.481"><g stroke-miterlimit="10" data-paper-data="{&quot;isPaintingLayer&quot;:true}" style="mix-blend-mode:normal"><path fill="#ffd500" d="M383.927 72.296.027 140.112 383.927 0z"/><path fill="#706f6f" d="M39.81 472.01c0 9.46-6.164 15.112-16.482 15.112H3.387v-47.276H23.53c9.32 0 14.668 4.49 14.668 12.317 0 3.917-2.141 7.59-5.376 9.338 2.451 1.076 6.988 3.95 6.988 10.509m-16.454 7.105c4.553 0 7.167-2.462 7.167-6.762 0-4.44-2.411-6.694-7.167-6.694H12.166v13.456zm-.073-21.153c4.768 0 5.765-2.728 5.765-5.01 0-3.42-2.04-5.088-6.232-5.088H12.16v10.098zm22.551 14.143c0 5.883 1.696 15.75 13.04 15.75 3.38 0 6.153-1.178 8.255-3.494v2.761h8.53v-34.536h-8.53v19.074c0 5.562-2.159 8.38-6.419 8.38-4.327 0-6.344-2.677-6.344-8.43v-19.024h-8.532zm130.11-4.069c0-5.483 2.265-8.38 6.553-8.38 4.244 0 6.216 2.677 6.216 8.436v19.03h8.525v-19.526c0-10.311-4.367-15.755-12.644-15.755-3.51 0-6.56 1.296-8.65 3.657v-2.913h-8.531v34.536h8.531zm-84.095-15.45h-8.526v34.535h8.526v-17.27zm7.601 34.535h8.532v-48.899l-8.532 4.271zm35.652-44.628 8.52-4.266v48.894h-8.52v-2.642c-2.287 2.304-4.97 3.375-7.832 3.375-8.368 0-13.36-6.858-13.36-18.347 0-10.893 5.19-17.66 13.535-17.66 2.896 0 5.578 1.014 7.657 3.172zm-6 37.5c3.166 0 4.732-1.752 6-3.403v-13.558c-.997-1.465-2.913-3.37-6.108-3.37-2.919 0-6.395 1.674-6.395 9.642 0 8.835 3.538 10.69 6.502 10.69m192.01-28.147c8.362 0 13.551 6.767 13.551 17.66 0 11.658-4.874 18.347-13.377 18.347-3.026 0-5.725-1.144-7.832-3.319v2.586h-8.526v-43.755l8.526-4.254v15.941c2.169-2.017 4.998-3.206 7.657-3.206m-1.589 7.816c-2.507 0-4.665 1.33-6.068 3.51v13.575c.918 1.115 3.042 3.245 6.243 3.245 4.21 0 6.26-3.499 6.26-10.69 0-7.105-3.324-9.64-6.435-9.64m-95.365-7.09h8.526V483.9c0 11.445-5.483 17.097-16.758 17.271h-.17l-3.014-6.694.383-.011c11.028-.198 11.033-5.37 11.033-9.157v-.806c-2.192 2.215-4.834 3.336-7.838 3.336-8.35 0-13.355-6.858-13.355-18.347 0-10.892 5.196-17.654 13.535-17.654 2.902 0 5.607 1.115 7.658 3.166zm0 10.442c-.991-1.46-2.907-3.37-6.114-3.37-2.913 0-6.39 1.674-6.39 9.642 0 8.835 3.517 10.695 6.458 10.695 3.054 0 4.688-1.634 6.046-3.404zm31.691-7.827c4-2.282 8.182-3.341 12.91-3.341 8.728 0 13.94 4.485 13.94 11.991v23.283h-8.525v-2.828c-2.339 2.614-5.872 3.56-8.3 3.56-5.906 0-12.803-3.188-12.803-12.193 0-8.35 7.415-11.315 13.76-11.315 2.542 0 5.37.631 7.343 1.629v-2.333c0-3.252-2.136-4.965-6.165-4.965-3.567 0-6.12.857-8.83 2.39zm5.753 20.472c0 3.184 2.249 5.167 5.877 5.167 3.133 0 5.607-1.831 6.695-3.64v-4.728c-1.978-1.211-4.17-1.701-6.695-1.701-3.68 0-5.877 1.831-5.877 4.902m105.812 6.779c-3.24 3.634-7.635 5.415-12.182 5.415-9.94 0-16.336-7.055-16.336-17.97 0-10.447 6.486-18.037 15.457-18.037 8.796 0 14.476 7.083 14.476 18.037 0 .862-.051 1.871-.096 2.587h-21.165c.412 6.976 5.956 7.522 7.664 7.522 3.133 0 5.257-1.504 6.801-2.907zm-6.801-16.212c-.203-3.505-2.006-7.145-6.508-7.145-3.601 0-6.216 2.919-6.424 7.145zm89.11 16.212c-3.319 3.634-7.64 5.415-12.194 5.415-9.934 0-16.352-7.055-16.352-17.97 0-10.447 6.508-18.037 15.479-18.037 8.796 0 14.476 7.083 14.476 18.037 0 .862-.05 1.871-.101 2.587h-21.16c.412 6.976 5.957 7.522 7.658 7.522 3.139 0 5.263-1.504 6.813-2.907zm-6.812-16.212c-.197-3.505-2-7.145-6.503-7.145-3.606 0-6.215 2.919-6.424 7.145zm-33.5-5.646h7.765v-7.996h-7.76v-13.118l-8.53 4.26v8.858h-5.308v7.996h5.308v16.685c0 4.885 2.411 10.588 9.207 10.588 2.7 0 5.184-.558 7.173-1.595l.998-8.052c-1.572.85-3.37 1.566-5.162 1.566-2.53 0-3.69-1.572-3.69-4.643zm-15.53 17.626c-1.572.85-3.375 1.566-5.161 1.566-2.536 0-3.691-1.572-3.691-4.643v-14.549h7.28v-7.996h-7.28v-13.118l-8.526 4.26v8.858h-5.33v7.996h5.33v16.685c0 4.885 2.407 10.588 9.208 10.588 2.699 0 5.178-.558 7.167-1.595zm85.307-24.275c-1.634-1.274-4.13-2.085-6.407-2.085-3.02 0-5.578 1.138-7.63 3.736v-2.998h-8.53v34.536h8.53V468.41c0-5.477 1.962-8.03 6.16-8.03 2.017 0 3.938.71 5.629 1.877zM91.838 439.13h-8.515v8.52h8.515v-3.29zm59.391 47.992h8.532v-34.536h-8.532zm8.52-47.992h-8.52v8.52h8.52v-4.26zm234.249 63.68 8.52-4.266v48.883h-8.52v-2.637c-2.288 2.299-4.97 3.37-7.838 3.37-8.368 0-13.36-6.858-13.36-18.348 0-10.892 5.183-17.654 13.534-17.654 2.902 0 5.585 1.015 7.664 3.167zm-6.007 37.495c3.167 0 4.739-1.759 6.007-3.404v-13.563c-.998-1.46-2.913-3.37-6.114-3.37-2.919 0-6.39 1.674-6.39 9.642 0 8.835 3.533 10.695 6.497 10.695m-281.446-26.062c-1.634-1.273-4.153-2.085-6.43-2.085-3.02 0-5.578 1.139-7.624 3.736v-2.998h-8.525v34.531h8.525V528.72c0-5.483 1.956-8.03 6.16-8.03 2.01 0 3.932.705 5.645 1.871zm-72.47 11.354c-.728 3.257-1.438 6.475-1.832 8.7-.513-2.676-1.437-6.417-2.051-8.694l-3.6-12.712h-7.253l-3.6 12.712c-.632 2.367-1.567 6.086-2.046 8.65-.428-2.598-1.251-6.441-1.73-8.464l-3.178-12.898H0l9.698 34.345.05.185h7.376l3.787-14.053c.631-2.13 1.595-6.39 1.916-7.793.462 1.96 1.24 4.987 1.882 7.511l3.832 14.335h7.325l9.754-34.53h-8.435zm28.934-13.484c9.095 0 15.7 7.585 15.7 18.037 0 10.453-6.605 18.038-15.7 18.038-9.083 0-15.687-7.585-15.687-18.038s6.604-18.037 15.687-18.037m0 28.023c4.25 0 6.999-3.922 6.999-9.986 0-6.068-2.75-9.985-6.999-9.985s-6.987 3.917-6.987 9.985c0 6.064 2.739 9.986 6.987 9.986m291.235-25.893c-1.635-1.273-4.153-2.085-6.43-2.085-3.02 0-5.578 1.139-7.607 3.736v-2.998h-8.526v34.531h8.526V528.72c0-5.483 1.938-8.03 6.136-8.03 2.018 0 3.94.705 5.652 1.871zm-72.46 11.354c-.726 3.257-1.436 6.475-1.83 8.7-.514-2.676-1.438-6.417-2.052-8.694l-3.595-12.712h-7.258l-3.6 12.712c-.637 2.367-1.573 6.086-2.046 8.65-.434-2.598-1.251-6.441-1.736-8.464l-3.172-12.898h-8.79l9.697 34.345.057.185h7.37l3.787-14.053c.63-2.13 1.594-6.39 1.916-7.793.467 1.96 1.24 4.987 1.882 7.511l3.837 14.335h7.33l9.75-34.53h-8.436zm28.874-13.467c9.094 0 15.698 7.585 15.698 18.037 0 10.453-6.604 18.038-15.698 18.038-9.09 0-15.688-7.585-15.688-18.038s6.599-18.037 15.688-18.037m0 28.022c4.248 0 6.998-3.921 6.998-9.985 0-6.068-2.75-9.985-6.998-9.985-4.25 0-6.993 3.917-6.993 9.985 0 6.064 2.744 9.985 6.993 9.985m-171.752-27.261h-9.856l-6.806 8.858c-.913 1.166-2.17 2.806-3.23 4.327v-27.481l-8.491 4.26v44.566h8.492v-10.345l4.508-5.686 7.257 16.031h9.433l-10.515-23.153zm31.29 15.456c0-5.482 2.266-8.379 6.554-8.379 4.243 0 6.215 2.677 6.215 8.436v19.023h8.531v-19.52c0-10.305-4.372-15.754-12.65-15.754-3.51 0-6.559 1.296-8.65 3.657v-2.914h-8.53v34.531h8.53zm48.218-15.462h8.52v31.325c0 11.444-5.482 17.09-16.758 17.27h-.163l-3.004-6.694.39-.011c11.004-.197 11.015-5.376 11.015-9.157v-.806c-2.197 2.215-4.834 3.336-7.838 3.336-8.356 0-13.36-6.857-13.36-18.352 0-10.887 5.195-17.655 13.535-17.655 2.902 0 5.6 1.122 7.663 3.173zm0 10.442c-.997-1.465-2.913-3.37-6.12-3.37-2.912 0-6.367 1.674-6.367 9.636 0 8.84 3.488 10.695 6.435 10.695 3.055 0 4.694-1.629 6.052-3.404zm-72.932 24.1h8.531v-34.53h-8.531zm8.52-47.975h-8.52v8.508h8.52v-4.254zm204.287 47.97h8.532v-48.827l-8.532 4.26zM61.623 347.89h97.112v44.662H3.387V198.368h110.145L139.3 243.03H61.623v32.045h70.222v40.775H61.623zm264.063-149.522L257.752 315.85v76.702H199.69V315.85l-67.85-117.482h64.39l32.908 63.37 32.986-63.37z"/></g></svg>