<?xml version="1.0" encoding="UTF-8" standalone="no"?>
<svg
   xmlns:dc="http://purl.org/dc/elements/1.1/"
   xmlns:cc="http://creativecommons.org/ns#"
   xmlns:rdf="http://www.w3.org/1999/02/22-rdf-syntax-ns#"
   xmlns:svg="http://www.w3.org/2000/svg"
   xmlns="http://www.w3.org/2000/svg"
   version="1.1"
   id="svg4258"
   viewBox="0 0 538.58267 320.96941"
   height="9.0584698cm"
   width="15.2cm">
  <defs
     id="defs4260">
    <clipPath
       id="clipPath4230"
       clipPathUnits="userSpaceOnUse">
      <path
         id="path4232"
         d="m 0,0 595.276,0 0,841.89 L 0,841.89 0,0 Z" />
    </clipPath>
    <clipPath
       id="clipPath4174"
       clipPathUnits="userSpaceOnUse">
      <path
         id="path4176"
         d="m 0,0 595.276,0 0,841.89 L 0,841.89 0,0 Z" />
    </clipPath>
  </defs>
  <metadata
     id="metadata4263">
    <rdf:RDF>
      <cc:Work
         rdf:about="">
        <dc:format>image/svg+xml</dc:format>
        <dc:type
           rdf:resource="http://purl.org/dc/dcmitype/StillImage" />
        <dc:title></dc:title>
      </cc:Work>
    </rdf:RDF>
  </metadata>
  <g
     transform="translate(-114.28564,-553.79097)"
     id="layer1">
    <g
       transform="matrix(3.5172501,0,0,3.5172501,-1143.9145,-2283.6952)"
       id="g4950">
      <g
         transform="matrix(1.25,0,0,-1.25,62.238839,1758.9114)"
         id="g4170">
        <g
           id="g4172"
           clip-path="url(#clipPath4174)">
          <g
             id="g4178"
             transform="translate(316.767,747.026)">
            <path
               d="M 0,0 -0.001,0 0,-0.002 -0.16,-0.092 c -2.237,3.782 -5.993,6.711 -9.999,7.758 -4.006,1.048 -9.125,0.443 -12.999,-1.74 l -0.091,0.155 13.581,7.654 c 0.639,0.36 1.457,0.146 1.826,-0.478 L 0,0 Z"
               style="fill:#1c387e;fill-opacity:1;fill-rule:nonzero;stroke:none"
               id="path4180" />
          </g>
          <g
             id="g4182"
             transform="translate(301.14,759.886)">
            <path
               d="m 0,0 0,-0.001 0.002,0 -0.001,-0.181 c -4.474,0.01 -8.953,-1.692 -11.892,-4.548 -2.939,-2.857 -4.971,-7.483 -4.981,-11.85 l -0.184,10e-4 0.034,15.308 c 0.002,0.721 0.602,1.305 1.34,1.303 L 0,0 Z"
               style="fill:#f89c0e;fill-opacity:1;fill-rule:nonzero;stroke:none"
               id="path4184" />
          </g>
          <g
             id="g4186"
             transform="translate(282.02,754.079)">
            <path
               d="M 0,0 0.001,0 0.002,0.001 0.161,-0.09 c -2.253,-3.773 -2.993,-8.409 -1.937,-12.324 1.057,-3.915 4.135,-7.952 8,-10.152 l -0.093,-0.155 -13.548,7.711 c -0.637,0.363 -0.853,1.162 -0.481,1.785 L 0,0 Z"
               style="fill:#1c387e;fill-opacity:1;fill-rule:nonzero;stroke:none"
               id="path4188" />
          </g>
          <g
             id="g4190"
             transform="translate(278.447,733.585)">
            <path
               d="M 0,0 0.001,0.001 0,0.002 0.161,0.091 c 2.212,-3.796 5.949,-6.748 9.947,-7.82 4,-1.073 9.122,-0.5 13.011,1.659 l 0.09,-0.156 -13.631,-7.569 c -0.642,-0.356 -1.458,-0.137 -1.823,0.49 L 0,0 Z"
               style="fill:#f89c0e;fill-opacity:1;fill-rule:nonzero;stroke:none"
               id="path4192" />
          </g>
          <g
             id="g4194"
             transform="translate(293.065,719.708)">
            <path
               d="m 0,0 0,0.001 -0.002,0 L 0,0.181 c 4.474,-0.037 8.964,1.637 11.922,4.475 2.957,2.839 5.02,7.451 5.058,11.818 L 17.164,16.472 17.03,1.164 C 17.024,0.443 16.42,-0.136 15.681,-0.13 L 0,0 Z"
               style="fill:#1c387e;fill-opacity:1;fill-rule:nonzero;stroke:none"
               id="path4196" />
          </g>
          <g
             id="g4198"
             transform="translate(313.164,726.275)">
            <path
               d="m 0,0 -0.001,0 -0.001,-0.001 -0.159,0.092 c 2.278,3.759 3.049,8.39 2.018,12.311 -1.031,3.922 -4.083,7.979 -7.933,10.203 l 0.094,0.154 13.497,-7.796 C 8.15,14.596 8.361,13.796 7.984,13.175 L 0,0 Z"
               style="fill:#f89c0e;fill-opacity:1;fill-rule:nonzero;stroke:none"
               id="path4200" />
          </g>
          <g
             id="g4202"
             transform="translate(347.551,692.851)">
            <path
               d="m 0,0 -1.139,-2.161 0,-1.09 -0.332,0 0,1.09 L -2.61,0 -2.245,0 -1.305,-1.823 -0.365,0 0,0 Z m -4.625,-3.251 -0.333,0 -1.998,2.855 0,-2.855 -0.333,0 0,3.251 0.45,0 1.881,-2.697 0,2.697 0.333,0 0,-3.251 z m -5.672,1.384 -0.64,1.489 -0.648,-1.489 1.288,0 z m 0.972,-1.384 -0.36,0 -0.482,1.09 -1.548,0 -0.482,-1.09 -0.36,0 1.436,3.251 0.369,0 1.427,-3.251 z m -4.904,2.276 c 0,0.193 -0.06,0.35 -0.18,0.47 -0.141,0.14 -0.351,0.211 -0.63,0.211 l -0.724,0 0,-1.358 0.724,0 c 0.276,0 0.485,0.07 0.626,0.211 0.123,0.12 0.184,0.275 0.184,0.466 m 0.333,0 c 0,-0.273 -0.085,-0.495 -0.256,-0.668 -0.201,-0.202 -0.498,-0.303 -0.891,-0.303 l -0.72,0 0,-1.305 -0.334,0 0,3.251 1.054,0 c 0.434,0 0.748,-0.116 0.94,-0.347 0.138,-0.164 0.207,-0.374 0.207,-0.628 m -4.516,-2.276 -0.333,0 0,2.886 -1.265,-2.886 -0.279,0 -1.265,2.886 0,-2.886 -0.332,0 0,3.251 0.512,0 1.224,-2.768 1.225,2.768 0.513,0 0,-3.251 z m -5.988,1.643 c 0,0.401 -0.136,0.73 -0.408,0.986 -0.271,0.257 -0.611,0.385 -1.019,0.385 -0.408,0 -0.749,-0.133 -1.024,-0.398 -0.274,-0.265 -0.411,-0.598 -0.411,-0.999 0,-0.404 0.136,-0.736 0.409,-0.993 0.273,-0.258 0.615,-0.387 1.026,-0.387 0.408,0 0.748,0.133 1.019,0.398 0.272,0.265 0.408,0.601 0.408,1.008 m 0.333,0 c 0,-0.486 -0.169,-0.891 -0.507,-1.215 -0.337,-0.323 -0.756,-0.485 -1.257,-0.485 -0.498,0 -0.917,0.158 -1.256,0.474 -0.339,0.317 -0.508,0.717 -0.508,1.2 0,0.486 0.168,0.889 0.506,1.21 0.337,0.321 0.757,0.481 1.258,0.481 0.501,0 0.92,-0.158 1.257,-0.472 0.338,-0.315 0.507,-0.713 0.507,-1.193 m -5.565,-0.795 c -0.156,-0.284 -0.367,-0.506 -0.632,-0.665 -0.266,-0.16 -0.562,-0.24 -0.889,-0.24 -0.495,0 -0.909,0.157 -1.243,0.47 -0.341,0.322 -0.512,0.729 -0.512,1.221 0,0.481 0.165,0.88 0.497,1.197 0.331,0.318 0.742,0.477 1.231,0.477 0.345,0 0.652,-0.078 0.92,-0.233 0.268,-0.155 0.473,-0.373 0.614,-0.654 l -0.396,0 c -0.093,0.14 -0.202,0.256 -0.328,0.347 -0.228,0.164 -0.497,0.246 -0.806,0.246 -0.411,0 -0.747,-0.134 -1.008,-0.402 -0.261,-0.268 -0.391,-0.594 -0.391,-0.978 0,-0.395 0.137,-0.727 0.411,-0.995 0.275,-0.268 0.612,-0.402 1.011,-0.402 0.216,0 0.42,0.049 0.612,0.145 0.213,0.106 0.384,0.261 0.513,0.466 l 0.396,0 z m -7.41,0 c -0.156,-0.284 -0.367,-0.506 -0.632,-0.665 -0.266,-0.16 -0.562,-0.24 -0.889,-0.24 -0.495,0 -0.909,0.157 -1.242,0.47 -0.342,0.322 -0.513,0.729 -0.513,1.221 0,0.481 0.165,0.88 0.497,1.197 0.331,0.318 0.742,0.477 1.231,0.477 0.345,0 0.652,-0.078 0.92,-0.233 0.269,-0.155 0.473,-0.373 0.614,-0.654 l -0.396,0 c -0.093,0.14 -0.202,0.256 -0.328,0.347 -0.228,0.164 -0.496,0.246 -0.806,0.246 -0.411,0 -0.747,-0.134 -1.008,-0.402 -0.261,-0.268 -0.391,-0.594 -0.391,-0.978 0,-0.395 0.137,-0.727 0.412,-0.995 0.274,-0.268 0.611,-0.402 1.01,-0.402 0.216,0 0.42,0.049 0.612,0.145 0.213,0.106 0.384,0.261 0.513,0.466 l 0.396,0 z m -5.461,-0.848 -0.333,0 0,3.251 0.333,0 0,-3.251 z m -2.658,0 -0.334,0 0,2.886 -1.264,-2.886 -0.279,0 -1.265,2.886 0,-2.886 -0.333,0 0,3.251 0.513,0 1.224,-2.768 1.224,2.768 0.514,0 0,-3.251 z m -5.988,1.643 c 0,0.401 -0.136,0.73 -0.408,0.986 -0.271,0.257 -0.611,0.385 -1.019,0.385 -0.408,0 -0.749,-0.133 -1.024,-0.398 -0.274,-0.265 -0.411,-0.598 -0.411,-0.999 0,-0.404 0.136,-0.736 0.409,-0.993 0.273,-0.258 0.615,-0.387 1.026,-0.387 0.408,0 0.748,0.133 1.019,0.398 0.272,0.265 0.408,0.601 0.408,1.008 m 0.333,0 c 0,-0.486 -0.169,-0.891 -0.507,-1.215 -0.337,-0.323 -0.756,-0.485 -1.257,-0.485 -0.498,0 -0.917,0.158 -1.256,0.474 -0.339,0.317 -0.508,0.717 -0.508,1.2 0,0.486 0.168,0.889 0.506,1.21 0.337,0.321 0.757,0.481 1.258,0.481 0.501,0 0.92,-0.158 1.257,-0.472 0.338,-0.315 0.507,-0.713 0.507,-1.193 m -5.034,1.314 -0.761,0 0,-2.957 -0.333,0 0,2.957 -0.76,0 0,0.294 1.854,0 0,-0.294 z m -4.143,-1.573 -0.639,1.489 -0.648,-1.489 1.287,0 z m 0.972,-1.384 -0.36,0 -0.482,1.09 -1.548,0 -0.481,-1.09 -0.36,0 1.435,3.251 0.369,0 1.427,-3.251 z m -7.068,0 -1.71,0 0,3.251 0.333,0 0,-2.957 1.377,0 0,-0.294 z m -4.719,1.384 -0.639,1.489 -0.648,-1.489 1.287,0 z m 0.972,-1.384 -0.36,0 -0.481,1.09 -1.549,0 -0.481,-1.09 -0.36,0 1.435,3.251 0.369,0 1.427,-3.251 z m -5.268,0 -0.333,0 -1.998,2.855 0,-2.855 -0.333,0 0,3.251 0.45,0 1.881,-2.697 0,2.697 0.333,0 0,-3.251 z m -5.178,1.643 c 0,0.401 -0.136,0.73 -0.407,0.986 -0.272,0.257 -0.611,0.385 -1.019,0.385 -0.408,0 -0.75,-0.133 -1.024,-0.398 -0.275,-0.265 -0.412,-0.598 -0.412,-0.999 0,-0.404 0.136,-0.736 0.41,-0.993 0.273,-0.258 0.614,-0.387 1.026,-0.387 0.408,0 0.747,0.133 1.019,0.398 0.271,0.265 0.407,0.601 0.407,1.008 m 0.333,0 c 0,-0.486 -0.169,-0.891 -0.506,-1.215 -0.338,-0.323 -0.757,-0.485 -1.258,-0.485 -0.498,0 -0.917,0.158 -1.255,0.474 -0.339,0.317 -0.509,0.717 -0.509,1.2 0,0.486 0.169,0.889 0.506,1.21 0.338,0.321 0.757,0.481 1.258,0.481 0.501,0 0.92,-0.158 1.258,-0.472 0.337,-0.315 0.506,-0.713 0.506,-1.193 m -5.713,-1.643 -0.333,0 0,3.251 0.333,0 0,-3.251 z m -2.361,2.957 -0.761,0 0,-2.957 -0.333,0 0,2.957 -0.76,0 0,0.294 1.854,0 0,-0.294 z m -4.143,-1.573 -0.639,1.489 -0.648,-1.489 1.287,0 z m 0.972,-1.384 -0.36,0 -0.482,1.09 -1.548,0 -0.481,-1.09 -0.36,0 1.435,3.251 0.369,0 1.427,-3.251 z m -5.268,0 -0.333,0 -1.998,2.855 0,-2.855 -0.333,0 0,3.251 0.45,0 1.881,-2.697 0,2.697 0.333,0 0,-3.251 z"
               style="fill:#828384;fill-opacity:1;fill-rule:nonzero;stroke:none"
               id="path4204" />
          </g>
        </g>
      </g>
      <g
         id="g4206"
         transform="matrix(1.25,0,0,-1.25,376.65509,874.51269)">
        <path
           d="m 0,0 -4.561,-10.532 3.123,0 0.765,1.868 4.132,0 0.78,-1.868 3.183,0 L 2.862,0 0,0 Z m 0.199,-6.409 1.209,2.973 1.193,-2.973 -2.402,0 z"
           style="fill:#1c387e;fill-opacity:1;fill-rule:nonzero;stroke:none"
           id="path4208" />
      </g>
      <g
         id="g4210"
         transform="matrix(1.25,0,0,-1.25,371.54884,874.56269)">
        <path
           d="m 0,0 -3.52,0 -3.674,-4.277 0,4.277 -3.061,0 0,-10.456 3.061,0 0,2.668 1.079,1.198 2.687,-3.866 2.015,0 0.591,1.347 -3.233,4.604 L 0,0 Z"
           style="fill:#1c387e;fill-opacity:1;fill-rule:nonzero;stroke:none"
           id="path4212" />
      </g>
      <g
         id="g4214"
         transform="matrix(1.25,0,0,-1.25,403.68259,874.51269)">
        <path
           d="m 0,0 -4.561,-10.532 3.123,0 0.765,1.868 4.132,0 0.78,-1.868 3.183,0 L 2.862,0 0,0 Z m 0.199,-6.409 1.209,2.973 1.193,-2.973 -2.402,0 z"
           style="fill:#1c387e;fill-opacity:1;fill-rule:nonzero;stroke:none"
           id="path4216" />
      </g>
      <g
         id="g4218"
         transform="matrix(1.25,0,0,-1.25,398.19009,884.64644)">
        <path
           d="m 0,0 -5.307,0 5.262,5.925 0,2.141 -9.181,0 0,-2.688 5.189,0 -5.58,-5.938 0.791,-1.83 7.863,0 L 0.072,0 0,0 Z"
           style="fill:#1c387e;fill-opacity:1;fill-rule:nonzero;stroke:none"
           id="path4220" />
      </g>
      <g
         id="g4222"
         transform="matrix(1.25,0,0,-1.25,410.64509,877.78144)">
        <path
           d="m 0,0 3.214,0 0,-7.918 2.969,0 0,7.918 3.213,0 0,2.539 L 0,2.539 0,0 Z"
           style="fill:#1c387e;fill-opacity:1;fill-rule:nonzero;stroke:none"
           id="path4224" />
      </g>
      <g
         transform="matrix(1.25,0,0,-1.25,62.238839,1758.9114)"
         id="g4226">
        <g
           id="g4228"
           clip-path="url(#clipPath4230)">
          <g
             id="g4234"
             transform="translate(294.074,707.653)">
            <path
               d="m 0,0 c -3.306,0 -5.785,-2.435 -5.785,-5.438 0,-3.032 2.449,-5.437 5.754,-5.437 3.306,0 5.785,2.435 5.785,5.437 C 5.754,-2.405 3.305,0 0,0 m 0,-8.261 c -1.622,0 -2.74,1.315 -2.74,2.823 0,1.539 1.087,2.824 2.709,2.824 1.638,0 2.755,-1.315 2.755,-2.824 0,-1.538 -1.087,-2.823 -2.724,-2.823"
               style="fill:#1c387e;fill-opacity:1;fill-rule:nonzero;stroke:none"
               id="path4236" />
          </g>
          <g
             id="g4238"
             transform="translate(318.328,707.444)">
            <path
               d="m 0,0 -4.591,0 0,-10.457 2.969,0 0,2.988 1.469,0 c 2.663,0 4.606,1.299 4.606,3.764 C 4.453,-1.359 2.708,0 0,0 m -0.214,-5.199 -1.408,0 0,2.764 1.392,0 c 1.072,0 1.714,-0.478 1.714,-1.374 0,-0.852 -0.642,-1.39 -1.698,-1.39"
               style="fill:#1c387e;fill-opacity:1;fill-rule:nonzero;stroke:none"
               id="path4240" />
          </g>
          <g
             id="g4242"
             transform="translate(333.233,703.844)">
            <path
               d="M 0,0 C 0,1.061 -0.322,1.867 -0.949,2.48 -1.668,3.182 -2.8,3.6 -4.438,3.6 l -5.065,0 0,-10.457 2.968,0 0,3.167 1.301,0 2.158,-3.167 3.428,0 -2.556,3.645 C -0.872,-2.659 0,-1.599 0,0 m -4.576,-1.419 -1.959,0 0,2.509 1.944,0 c 0.995,0 1.607,-0.418 1.607,-1.239 0,-0.792 -0.582,-1.27 -1.592,-1.27"
               style="fill:#1c387e;fill-opacity:1;fill-rule:nonzero;stroke:none"
               id="path4244" />
          </g>
          <g
             id="g4246"
             transform="translate(339.843,707.653)">
            <path
               d="m 0,0 c -3.306,0 -5.785,-2.435 -5.785,-5.438 0,-3.032 2.449,-5.437 5.754,-5.437 3.306,0 5.785,2.435 5.785,5.437 C 5.754,-2.405 3.305,0 0,0 m 0,-8.261 c -1.622,0 -2.74,1.315 -2.74,2.823 0,1.539 1.087,2.824 2.709,2.824 1.638,0 2.755,-1.315 2.755,-2.824 0,-1.538 -1.087,-2.823 -2.724,-2.823"
               style="fill:#1c387e;fill-opacity:1;fill-rule:nonzero;stroke:none"
               id="path4248" />
          </g>
        </g>
      </g>
      <g
         id="g4250"
         transform="matrix(1.25,0,0,-1.25,445.30509,879.62394)">
        <path
           d="m 0,0 -2.556,4.048 -3.046,0 0,-10.456 2.755,0 0,5.94 2.321,-3.55 0.99,0 2.197,3.58 0,-5.97 3.061,0 0,10.456 -3.166,0 L 0,0 Z"
           style="fill:#1c387e;fill-opacity:1;fill-rule:nonzero;stroke:none"
           id="path4252" />
      </g>
      <g
         id="g4254"
         transform="matrix(1.25,0,0,-1.25,506.09384,874.56269)">
        <path
           d="M 0,0 -2.556,-4.048 -5.111,0 l -3.215,0 0,-10.456 3.061,0 0,5.94 2.184,-3.55 0.989,0 2.336,3.58 0,-5.97 2.754,0 L 2.998,0 0,0 Z"
           style="fill:#1c387e;fill-opacity:1;fill-rule:nonzero;stroke:none"
           id="path4256" />
      </g>
    </g>
  </g>
</svg>
