<?xml version="1.0" encoding="utf-8"?>
<!-- Generator: Adobe Illustrator 28.1.0, SVG Export Plug-In . SVG Version: 6.00 Build 0)  -->
<svg version="1.1" id="Layer_1" xmlns="http://www.w3.org/2000/svg" xmlns:xlink="http://www.w3.org/1999/xlink" x="0px" y="0px"
	 width="93px" height="20.81px" viewBox="0 0 93 20.81" style="enable-background:new 0 0 93 20.81;" xml:space="preserve">
<style type="text/css">
	.st0{fill:#47FFC8;}
	.st1{fill:#355DEE;}
</style>
<g>
	<g>
		<path class="st0" d="M11.14,16.94H7.73v3.37h3.42V16.94z"/>
		<path class="st1" d="M24.75,17.12c-1.08,0-2.04-0.29-2.88-0.86c-0.86-0.57-1.53-1.35-2.01-2.34c-0.48-0.97-0.73-2.06-0.73-3.23
			c0-1.17,0.24-2.24,0.73-3.22c0.48-0.97,1.16-1.76,2.01-2.34s1.81-0.86,2.86-0.86c0.59,0,1.15,0.07,1.67,0.22
			c0.52,0.15,0.97,0.37,1.37,0.66c0.39,0.29,0.72,0.64,0.96,1.05V4.67h3.44v12.06H28.7v-1.52c-0.24,0.41-0.57,0.75-0.96,1.04
			c-0.39,0.29-0.85,0.51-1.35,0.66C25.89,17.06,25.33,17.12,24.75,17.12z M25.63,13.83c0.56,0,1.05-0.14,1.51-0.41
			c0.44-0.26,0.8-0.65,1.06-1.14c0.25-0.47,0.38-1.01,0.38-1.59c0-0.57-0.13-1.1-0.39-1.57c-0.25-0.47-0.61-0.85-1.06-1.14
			c-0.44-0.27-0.94-0.42-1.48-0.42c-0.54,0-1.02,0.12-1.48,0.37c-0.46,0.25-0.8,0.61-1.06,1.09c-0.25,0.47-0.39,1.02-0.39,1.66
			c0,0.64,0.13,1.21,0.39,1.69c0.27,0.47,0.62,0.82,1.06,1.07C24.61,13.7,25.1,13.83,25.63,13.83z"/>
		<path class="st1" d="M33.17,14.56l5.63-6.89h-5.34V4.66h10.29v2.2l-5.57,6.86h5.84v3.01H33.16v-2.16H33.17z"/>
		<path class="st1" d="M45.26,0.9h6.96c1.11,0,2.1,0.24,2.99,0.7c0.87,0.47,1.57,1.12,2.06,1.96c0.49,0.84,0.75,1.77,0.75,2.81
			c0,1.11-0.24,2.1-0.73,2.96c-0.48,0.86-1.16,1.51-2.05,1.99c-0.87,0.47-1.86,0.7-2.96,0.7h-3.25v4.7h-3.74L45.26,0.9z M52.07,8.77
			c0.4,0,0.77-0.1,1.1-0.31c0.33-0.21,0.61-0.5,0.8-0.86c0.2-0.36,0.29-0.76,0.29-1.2c0-0.36-0.1-0.72-0.29-1.06
			c-0.2-0.34-0.47-0.61-0.8-0.82c-0.33-0.21-0.71-0.31-1.1-0.31h-3.06v4.58L52.07,8.77z"/>
		<path class="st1" d="M64.79,17.12c-1.24,0-2.35-0.29-3.34-0.86c-0.99-0.57-1.76-1.35-2.32-2.32c-0.56-0.97-0.83-2.06-0.83-3.23
			c0-1.17,0.27-2.24,0.82-3.22c0.56-0.97,1.33-1.76,2.32-2.34c0.99-0.57,2.11-0.86,3.37-0.86c1.25,0,2.39,0.29,3.38,0.86
			s1.77,1.35,2.33,2.34c0.56,0.97,0.84,2.05,0.84,3.22c0,1.16-0.28,2.26-0.84,3.23c-0.56,0.97-1.33,1.75-2.33,2.32
			C67.18,16.84,66.06,17.12,64.79,17.12z M64.82,13.81c0.57,0,1.08-0.12,1.51-0.4c0.43-0.27,0.78-0.64,1.04-1.1
			c0.25-0.47,0.38-1.01,0.38-1.61c0-0.6-0.13-1.15-0.38-1.61c-0.25-0.47-0.59-0.84-1.04-1.1c-0.44-0.26-0.94-0.4-1.51-0.4
			c-0.57,0-1.08,0.12-1.52,0.4c-0.44,0.26-0.8,0.64-1.04,1.1c-0.25,0.47-0.38,1.01-0.38,1.61c0,0.6,0.13,1.15,0.38,1.62
			c0.25,0.47,0.59,0.84,1.04,1.1C63.76,13.68,64.26,13.81,64.82,13.81z"/>
		<path class="st1" d="M77.53,17.12c-1.19,0-2.19-0.2-3-0.61c-0.81-0.41-1.42-0.95-1.81-1.6c-0.39-0.66-0.58-1.37-0.58-2.14
			l3.48,0.02c0.03,0.3,0.1,0.56,0.25,0.79c0.14,0.22,0.35,0.4,0.65,0.52c0.29,0.12,0.63,0.19,1.05,0.19c0.38,0,0.68-0.04,0.92-0.14
			c0.24-0.1,0.42-0.21,0.52-0.37c0.1-0.16,0.16-0.35,0.16-0.57c0-0.22-0.08-0.42-0.23-0.56c-0.15-0.15-0.38-0.26-0.67-0.34
			c-0.3-0.09-0.71-0.16-1.21-0.24c-0.87-0.11-1.64-0.31-2.3-0.6c-0.66-0.29-1.19-0.71-1.57-1.25c-0.39-0.55-0.58-1.22-0.58-2.04
			c0-0.81,0.19-1.51,0.57-2.1c0.38-0.59,0.92-1.04,1.66-1.34c0.72-0.31,1.59-0.46,2.61-0.46s1.9,0.17,2.67,0.51
			c0.78,0.34,1.38,0.82,1.82,1.45c0.43,0.62,0.65,1.34,0.65,2.14l-3.56-0.02c-0.03-0.22-0.1-0.42-0.2-0.6
			c-0.11-0.19-0.29-0.32-0.52-0.42c-0.23-0.1-0.52-0.15-0.85-0.15c-0.29,0-0.53,0.04-0.72,0.12c-0.19,0.08-0.33,0.19-0.42,0.32
			c-0.09,0.14-0.13,0.29-0.13,0.47c0,0.24,0.05,0.41,0.15,0.54c0.1,0.12,0.3,0.24,0.59,0.31c0.29,0.09,0.78,0.19,1.45,0.27
			c0.08,0.01,0.16,0.03,0.25,0.04c0.09,0.01,0.16,0.03,0.25,0.04c0.9,0.15,1.64,0.37,2.21,0.65c0.58,0.29,1.02,0.66,1.34,1.15
			c0.3,0.49,0.47,1.11,0.47,1.89c0,0.91-0.24,1.67-0.7,2.29c-0.46,0.61-1.1,1.07-1.9,1.37c-0.8,0.3-1.71,0.46-2.75,0.46H77.53z"/>
		<path class="st1" d="M89.59,16.74c-0.75,0-1.43-0.11-2.05-0.34c-0.62-0.22-1.13-0.69-1.56-1.37c-0.43-0.7-0.65-1.69-0.65-2.98
			V7.73h-2.35V4.69h2.35V1.2l3.64-0.03v3.51h3.31v3.05H89v4.47c0,0.37,0.06,0.67,0.19,0.91c0.13,0.24,0.28,0.41,0.48,0.51
			s0.44,0.16,0.71,0.16h1.92v2.96L89.59,16.74z"/>
		<path class="st1" d="M16.98,4.62c-0.78-1.26-1.85-2.27-3.19-3.01C12.47,0.88,11.01,0.5,9.43,0.5c-1.57,0-3.05,0.37-4.38,1.11
			C3.71,2.35,2.66,3.36,1.88,4.62C1.09,5.88,0.7,7.28,0.7,8.78c0,1.51,0.39,2.9,1.18,4.16c0.78,1.27,1.83,2.27,3.18,3.02
			c0.84,0.46,1.73,0.79,2.67,0.96v-3.5c-0.27-0.1-0.53-0.21-0.8-0.35c-0.76-0.41-1.38-1-1.82-1.75c-0.44-0.75-0.67-1.59-0.67-2.52
			c0-0.94,0.22-1.79,0.66-2.54C5.53,5.52,6.14,4.94,6.9,4.51c0.76-0.42,1.61-0.64,2.53-0.64c0.92,0,1.75,0.21,2.52,0.64
			c0.76,0.42,1.37,1.01,1.82,1.76c0.44,0.75,0.67,1.6,0.67,2.54c0,0.94-0.22,1.77-0.67,2.52c-0.44,0.75-1.05,1.34-1.82,1.76
			c-0.25,0.15-0.53,0.26-0.81,0.35v3.5c0.94-0.17,1.82-0.5,2.66-0.96c1.34-0.74,2.39-1.75,3.19-3.02c0.78-1.27,1.18-2.66,1.18-4.16
			S17.77,5.88,16.98,4.62z"/>
	</g>
</g>
</svg>
