<?xml version="1.0" encoding="UTF-8"?>
<!DOCTYPE svg PUBLIC "-//W3C//DTD SVG 1.1//EN" "http://www.w3.org/Graphics/SVG/1.1/DTD/svg11.dtd">
<!-- Creator: CorelDRAW (Оценочная версия) -->
<svg xmlns="http://www.w3.org/2000/svg" xml:space="preserve" width="200px" height="47px" version="1.1" style="shape-rendering:geometricPrecision; text-rendering:geometricPrecision; image-rendering:optimizeQuality; fill-rule:evenodd; clip-rule:evenodd"
viewBox="0 0 200 47"
 xmlns:xlink="http://www.w3.org/1999/xlink"
 xmlns:xodm="http://www.corel.com/coreldraw/odm/2003">
 <defs>
  <style type="text/css">
   <![CDATA[
    .fil0 {fill:#3D4986;fill-rule:nonzero}
   ]]>
  </style>
 </defs>
 <g id="Слой_x0020_1">
  <metadata id="CorelCorpID_0Corel-Layer"/>
  <g id="_105553180128672">
   <g>
    <polygon class="fil0" points="66.68,32.44 66.68,15.61 70.08,15.61 70.08,23.08 76.94,15.61 81.51,15.61 75.18,22.17 81.86,32.44 77.46,32.44 72.83,24.54 70.08,27.36 70.08,32.44 "/>
    <path class="fil0" d="M86 23.97l-2.92 -0.53c0.33,-1.18 0.89,-2.05 1.7,-2.62 0.8,-0.56 1.99,-0.85 3.58,-0.85 1.44,0 2.51,0.17 3.21,0.51 0.71,0.35 1.2,0.78 1.49,1.3 0.29,0.53 0.43,1.49 0.43,2.89l-0.03 3.77c0,1.07 0.05,1.86 0.15,2.37 0.11,0.51 0.3,1.05 0.58,1.63l-3.19 0c-0.09,-0.21 -0.19,-0.53 -0.31,-0.95 -0.06,-0.19 -0.09,-0.32 -0.12,-0.38 -0.55,0.54 -1.14,0.94 -1.76,1.21 -0.63,0.27 -1.3,0.4 -2.01,0.4 -1.26,0 -2.25,-0.34 -2.97,-1.02 -0.72,-0.68 -1.09,-1.55 -1.09,-2.59 0,-0.69 0.17,-1.3 0.5,-1.84 0.33,-0.54 0.79,-0.95 1.38,-1.24 0.59,-0.29 1.45,-0.54 2.57,-0.75 1.5,-0.29 2.55,-0.55 3.13,-0.79l0 -0.33c0,-0.62 -0.15,-1.06 -0.46,-1.32 -0.3,-0.27 -0.88,-0.4 -1.73,-0.4 -0.58,0 -1.02,0.12 -1.35,0.34 -0.32,0.23 -0.58,0.62 -0.78,1.19zm4.32 2.62l0 0c-0.41,0.14 -1.07,0.3 -1.96,0.49 -0.9,0.19 -1.48,0.38 -1.76,0.56 -0.42,0.3 -0.63,0.68 -0.63,1.14 0,0.45 0.17,0.84 0.51,1.17 0.33,0.33 0.76,0.5 1.28,0.5 0.58,0 1.14,-0.2 1.67,-0.58 0.39,-0.29 0.64,-0.65 0.77,-1.07 0.08,-0.27 0.12,-0.8 0.12,-1.57l0 -0.64z"/>
    <path class="fil0" d="M95.37 32.44l0 -2.51 4.57 -5.25c0.75,-0.86 1.31,-1.46 1.67,-1.82 -0.38,0.02 -0.87,0.03 -1.48,0.04l-4.31 0.02 0 -2.67 10.08 0 0 2.28 -4.66 5.38 -1.64 1.78c0.89,-0.06 1.45,-0.08 1.66,-0.08l5 0 0 2.83 -10.89 0z"/>
    <polygon class="fil0" points="112.24,32.44 112.24,18.46 107.25,18.46 107.25,15.61 120.62,15.61 120.62,18.46 115.64,18.46 115.64,32.44 "/>
    <path class="fil0" d="M124.59 32.44l-3.23 0 0 -12.19 3 0 0 1.73c0.51,-0.82 0.97,-1.36 1.38,-1.62 0.41,-0.26 0.88,-0.39 1.39,-0.39 0.74,0 1.45,0.21 2.13,0.61l-1 2.82c-0.54,-0.36 -1.05,-0.53 -1.51,-0.53 -0.46,0 -0.84,0.12 -1.15,0.37 -0.32,0.25 -0.56,0.7 -0.74,1.35 -0.18,0.65 -0.27,2.01 -0.27,4.09l0 3.76z"/>
    <path class="fil0" d="M133.06 23.97l-2.93 -0.53c0.33,-1.18 0.9,-2.05 1.7,-2.62 0.81,-0.56 2,-0.85 3.58,-0.85 1.44,0 2.52,0.17 3.22,0.51 0.7,0.35 1.2,0.78 1.49,1.3 0.28,0.53 0.43,1.49 0.43,2.89l-0.04 3.77c0,1.07 0.05,1.86 0.16,2.37 0.1,0.51 0.29,1.05 0.58,1.63l-3.19 0c-0.09,-0.21 -0.19,-0.53 -0.32,-0.95 -0.05,-0.19 -0.09,-0.32 -0.11,-0.38 -0.55,0.54 -1.14,0.94 -1.77,1.21 -0.63,0.27 -1.3,0.4 -2.01,0.4 -1.25,0 -2.24,-0.34 -2.97,-1.02 -0.72,-0.68 -1.08,-1.55 -1.08,-2.59 0,-0.69 0.16,-1.3 0.49,-1.84 0.33,-0.54 0.79,-0.95 1.39,-1.24 0.59,-0.29 1.45,-0.54 2.56,-0.75 1.51,-0.29 2.56,-0.55 3.14,-0.79l0 -0.33c0,-0.62 -0.16,-1.06 -0.46,-1.32 -0.31,-0.27 -0.89,-0.4 -1.74,-0.4 -0.57,0 -1.02,0.12 -1.34,0.34 -0.32,0.23 -0.58,0.62 -0.78,1.19zm4.32 2.62l0 0c-0.42,0.14 -1.07,0.3 -1.97,0.49 -0.89,0.19 -1.48,0.38 -1.75,0.56 -0.42,0.3 -0.63,0.68 -0.63,1.14 0,0.45 0.16,0.84 0.5,1.17 0.34,0.33 0.77,0.5 1.29,0.5 0.58,0 1.13,-0.2 1.66,-0.58 0.39,-0.29 0.65,-0.65 0.77,-1.07 0.08,-0.27 0.13,-0.8 0.13,-1.57l0 -0.64z"/>
    <path class="fil0" d="M154.82 32.44l-3.23 0 0 -6.22c0,-1.32 -0.07,-2.17 -0.2,-2.56 -0.14,-0.38 -0.36,-0.68 -0.67,-0.9 -0.31,-0.21 -0.69,-0.32 -1.12,-0.32 -0.56,0 -1.06,0.16 -1.51,0.46 -0.44,0.31 -0.75,0.71 -0.91,1.22 -0.17,0.5 -0.25,1.44 -0.25,2.8l0 5.52 -3.23 0 0 -12.19 3 0 0 1.79c1.07,-1.38 2.41,-2.07 4.02,-2.07 0.71,0 1.36,0.13 1.95,0.39 0.59,0.26 1.04,0.58 1.34,0.98 0.3,0.4 0.51,0.85 0.63,1.36 0.12,0.5 0.18,1.22 0.18,2.16l0 7.58z"/>
    <path class="fil0" d="M156.96 28.96l3.23 -0.49c0.14,0.63 0.42,1.11 0.84,1.43 0.42,0.33 1.01,0.49 1.77,0.49 0.83,0 1.46,-0.15 1.88,-0.46 0.29,-0.22 0.43,-0.5 0.43,-0.86 0,-0.25 -0.08,-0.45 -0.23,-0.61 -0.16,-0.15 -0.52,-0.3 -1.08,-0.43 -2.6,-0.57 -4.25,-1.09 -4.95,-1.57 -0.96,-0.66 -1.45,-1.57 -1.45,-2.74 0,-1.06 0.42,-1.95 1.26,-2.67 0.83,-0.72 2.12,-1.08 3.88,-1.08 1.67,0 2.91,0.28 3.72,0.82 0.81,0.54 1.37,1.35 1.67,2.41l-3.04 0.56c-0.13,-0.47 -0.38,-0.84 -0.74,-1.09 -0.36,-0.25 -0.88,-0.38 -1.56,-0.38 -0.85,0 -1.45,0.12 -1.82,0.36 -0.25,0.17 -0.37,0.39 -0.37,0.65 0,0.23 0.11,0.43 0.32,0.59 0.29,0.21 1.3,0.52 3.02,0.91 1.71,0.39 2.91,0.87 3.6,1.43 0.67,0.58 1.01,1.38 1.01,2.4 0,1.12 -0.47,2.08 -1.4,2.88 -0.94,0.81 -2.32,1.21 -4.15,1.21 -1.66,0 -2.98,-0.34 -3.94,-1.01 -0.97,-0.68 -1.61,-1.59 -1.9,-2.75z"/>
    <path class="fil0" d="M170.51 24.13c0,-1.71 0.25,-3.15 0.77,-4.32 0.38,-0.85 0.9,-1.62 1.56,-2.3 0.66,-0.69 1.39,-1.19 2.18,-1.52 1.05,-0.45 2.26,-0.67 3.63,-0.67 2.48,0 4.46,0.77 5.95,2.31 1.49,1.54 2.23,3.68 2.23,6.42 0,2.72 -0.74,4.84 -2.21,6.38 -1.48,1.53 -3.45,2.3 -5.93,2.3 -2.5,0 -4.49,-0.76 -5.97,-2.29 -1.48,-1.53 -2.21,-3.63 -2.21,-6.31zm3.5 -0.11l0 0c0,1.9 0.44,3.35 1.32,4.33 0.88,0.98 2,1.48 3.35,1.48 1.36,0 2.47,-0.49 3.34,-1.47 0.87,-0.97 1.3,-2.44 1.3,-4.39 0,-1.93 -0.42,-3.37 -1.27,-4.32 -0.84,-0.95 -1.97,-1.42 -3.37,-1.42 -1.4,0 -2.53,0.48 -3.39,1.44 -0.85,0.96 -1.28,2.41 -1.28,4.35z"/>
    <path class="fil0" d="M189.46 18.6l0 -2.99 3.23 0 0 2.99 -3.23 0zm0 13.84l0 0 0 -12.19 3.23 0 0 12.19 -3.23 0z"/>
    <polygon class="fil0" points="196,32.44 196,15.61 199.22,15.61 199.22,32.44 "/>
   </g>
   <path class="fil0" d="M9.3 14.59c0,2.37 -1.9,4.29 -4.26,4.29 -2.34,-0.01 -4.28,-1.96 -4.26,-4.3 0.01,-2.32 1.9,-4.2 4.22,-4.21 2.4,-0.02 4.29,1.84 4.3,4.22z"/>
   <path class="fil0" d="M14.45 10.37c2.37,-0.01 4.29,1.9 4.28,4.25 -0.01,2.34 -1.97,4.28 -4.31,4.26 -2.31,-0.03 -4.2,-1.91 -4.21,-4.24 -0.01,-2.39 1.85,-4.27 4.24,-4.27z"/>
   <path class="fil0" d="M42.68 10.37c2.39,-0.01 4.26,1.87 4.25,4.25 0,2.36 -1.93,4.27 -4.28,4.26 -2.31,-0.03 -4.22,-1.94 -4.24,-4.25 -0.02,-2.35 1.9,-4.26 4.27,-4.26z"/>
   <path class="fil0" d="M37.51 5.23c-0.02,2.4 -1.91,4.25 -4.32,4.22 -2.31,-0.03 -4.22,-1.99 -4.18,-4.29 0.03,-2.34 1.94,-4.22 4.26,-4.22 2.37,-0.01 4.26,1.9 4.24,4.29z"/>
   <path class="fil0" d="M9.3 33.41c0,2.38 -1.88,4.26 -4.26,4.25 -2.37,0 -4.29,-1.92 -4.26,-4.27 0.02,-2.31 1.91,-4.21 4.23,-4.24 2.35,-0.03 4.28,1.89 4.29,4.26z"/>
   <path class="fil0" d="M46.93 33.44c0,2.37 -1.9,4.24 -4.29,4.22 -2.33,-0.01 -4.22,-1.9 -4.23,-4.22 -0.01,-2.34 1.93,-4.29 4.27,-4.29 2.36,0.01 4.26,1.92 4.25,4.29z"/>
   <path class="fil0" d="M37.51 14.61c0,2.39 -1.92,4.3 -4.29,4.27 -2.31,-0.04 -4.21,-1.97 -4.21,-4.28 0,-2.36 1.92,-4.25 4.32,-4.23 2.35,0.01 4.19,1.87 4.18,4.24z"/>
   <path class="fil0" d="M19.63 14.58c0.01,-2.4 1.87,-4.23 4.29,-4.21 2.32,0.01 4.21,1.9 4.22,4.22 0.01,2.34 -1.94,4.29 -4.28,4.29 -2.36,-0.01 -4.24,-1.92 -4.23,-4.3z"/>
   <path class="fil0" d="M47.85 24.04c-0.01,-2.41 1.84,-4.26 4.25,-4.26 2.36,0.01 4.25,1.87 4.27,4.2 0.02,2.36 -1.92,4.29 -4.29,4.28 -2.35,-0.01 -4.22,-1.87 -4.23,-4.22z"/>
   <path class="fil0" d="M42.65 19.78c2.42,0 4.29,1.84 4.29,4.25 -0.02,2.34 -1.87,4.21 -4.23,4.23 -2.36,0.02 -4.3,-1.9 -4.3,-4.26 0.01,-2.33 1.89,-4.2 4.24,-4.22z"/>
   <path class="fil0" d="M33.24 37.66c-2.33,-0.01 -4.22,-1.9 -4.23,-4.23 -0.01,-2.35 1.96,-4.31 4.29,-4.28 2.39,0.04 4.24,1.94 4.21,4.35 -0.03,2.36 -1.9,4.18 -4.27,4.16z"/>
   <path class="fil0" d="M33.24 47.06c-2.33,-0.01 -4.22,-1.9 -4.23,-4.23 -0.01,-2.35 1.96,-4.31 4.29,-4.28 2.39,0.03 4.24,1.94 4.21,4.35 -0.03,2.36 -1.9,4.18 -4.27,4.16z"/>
   <path class="fil0" d="M37.51 23.99c0.01,2.4 -1.87,4.28 -4.25,4.27 -2.34,-0.01 -4.24,-1.9 -4.25,-4.23 -0.02,-2.36 1.89,-4.25 4.29,-4.24 2.37,0 4.2,1.83 4.21,4.2z"/>
   <path class="fil0" d="M5.06 19.78c2.42,0.01 4.25,1.88 4.24,4.29 -0.03,2.34 -1.92,4.2 -4.27,4.19 -2.37,-0.01 -4.29,-1.96 -4.25,-4.3 0.03,-2.34 1.92,-4.18 4.28,-4.18z"/>
   <path class="fil0" d="M14.47 19.78c2.34,0.01 4.24,1.87 4.26,4.2 0.02,2.35 -1.92,4.29 -4.28,4.28 -2.39,-0.01 -4.26,-1.9 -4.24,-4.29 0.02,-2.36 1.88,-4.19 4.26,-4.19z"/>
   <path class="fil0" d="M23.85 19.78c2.4,0 4.31,1.91 4.29,4.26 -0.03,2.33 -1.92,4.21 -4.25,4.22 -2.39,0.01 -4.27,-1.87 -4.26,-4.27 0.01,-2.38 1.84,-4.2 4.22,-4.21z"/>
   <path class="fil0" d="M14.47 29.17c2.34,0 4.24,1.86 4.26,4.19 0.02,2.35 -1.92,4.29 -4.28,4.29 -2.39,-0.01 -4.26,-1.9 -4.24,-4.3 0.02,-2.36 1.88,-4.18 4.26,-4.18z"/>
   <path class="fil0" d="M23.85 29.17c2.4,-0.01 4.31,1.9 4.29,4.25 -0.03,2.34 -1.92,4.22 -4.25,4.23 -2.39,0 -4.27,-1.88 -4.26,-4.28 0.01,-2.38 1.84,-4.2 4.22,-4.2z"/>
  </g>
 </g>
</svg>
