<svg width="195" height="21" viewBox="0 0 195 21" fill="none" xmlns="http://www.w3.org/2000/svg">
<path d="M1.21435 0.626127H12.0643C13.4839 0.626127 15.5543 1.0621 16.2823 2.63419C17.0104 4.20627 19.7315 9.95555 19.7315 9.95555C19.7315 9.95555 22.7618 3.66721 23.2987 2.59553C23.8356 1.5217 25.1006 0.626127 26.8638 0.626127H32.1192C34.6491 0.626127 36.6035 1.97915 36.6035 4.93433C36.6035 7.88736 36.6808 12.6766 36.6808 15.7864C36.6808 18.8898 37.2563 19.2356 37.5248 19.5427C37.7911 19.8498 37.5613 20.041 37.2929 20.041H26.6319C26.2131 20.041 26.1723 19.7725 26.1723 19.5427V11.5684C26.1723 11.5684 23.3374 17.5067 22.7231 18.7738C22.1111 20.041 20.7301 20.1548 19.4651 20.1548C18.2002 20.1548 16.9717 20.1161 16.205 18.544C15.4383 16.972 12.7924 11.4546 12.7924 11.4546V16.7443C12.7924 18.3529 13.4839 19.2635 13.791 19.5019C14.0982 19.7467 13.9822 20.041 13.7502 20.041H2.8616C2.44066 20.041 2.32469 19.8498 2.32469 19.5427C2.32469 19.2356 2.13569 7.00252 2.13569 5.0503C2.13569 3.09379 1.40549 1.71499 1.02106 1.2511C0.638776 0.791497 1.21435 0.626127 1.21435 0.626127Z" fill="#E60013"/>
<path d="M48.5273 9.99641C47.9517 10.5333 47.4856 11.0359 47.6081 13.4434C47.6832 14.9425 48.7205 15.7844 49.9469 15.7844C50.8661 15.7844 51.9034 15.0434 51.9034 13.9438V9.76446C51.9034 9.41654 51.7079 9.26621 51.4051 9.30272C49.8287 9.49815 49.1028 9.4595 48.5273 9.99641ZM44.7302 5.3274H60.7217C61.1039 5.3274 61.4862 5.47344 61.4862 5.89224V15.5546C61.4862 18.1232 62.1005 19.0445 62.3303 19.3108C62.5601 19.5793 62.4462 20.041 62.0231 20.041H55.0089C53.1297 20.041 52.4768 19.27 52.0172 18.005C49.7171 20.2343 47.8765 20.1913 45.7654 20.1913C39.9753 20.1913 37.7976 16.7487 37.8684 11.7553C37.9329 7.20446 41.7278 5.3274 44.7302 5.3274Z" fill="#E60013"/>
<path d="M64.2503 5.32741H74.6771C78.4355 5.32741 80.7378 7.08634 81.1201 9.68501C81.3499 11.2592 81.1996 12.0625 81.1588 12.3674C81.1201 12.6767 80.8903 12.7927 80.6197 12.87C80.3556 12.943 74.9091 14.7105 74.6406 14.7857C74.37 14.863 74.1402 14.7857 74.2562 14.4034C74.37 14.019 75.0637 13.0976 75.0229 11.3731C74.9843 9.6485 74.4087 9.49601 74.1037 9.30272C73.7945 9.11158 73.4143 9.03856 73.3735 9.30272C73.337 9.57333 73.2597 9.72152 73.2597 9.99642C73.2597 10.2606 73.1824 13.0976 73.1824 15.7844C73.1824 18.4646 73.6828 18.9522 73.8353 19.3495C73.9899 19.7468 74.0264 20.041 73.5281 20.041H64.2503C63.7885 20.041 63.7133 19.7726 63.7133 19.3108V5.81493C63.7133 5.54862 63.9023 5.32741 64.2503 5.32741Z" fill="#E60013"/>
<path d="M80.8516 5.32741H87.2559C90.0909 5.32741 91.1282 6.27238 91.1282 9.22541V15.9776C91.1282 17.3564 91.7038 17.6614 92.4318 17.6614C94.1177 17.6614 95.6146 16.2053 95.6146 14.5924V8.69064C95.6146 7.0799 95.1142 6.12204 94.9231 5.9266C94.7319 5.73546 94.6911 5.32741 95.0777 5.32741H104.433C105.006 5.32741 105.161 5.50781 105.161 6.00822C105.161 6.50647 105.197 18.4646 105.197 18.9672C105.197 19.4633 105.238 20.041 104.51 20.041H87.7155C84.2256 20.041 81.6205 18.1597 81.6205 14.019V8.9591C81.6205 6.77063 80.813 6.23802 80.5832 6.00822C80.3555 5.77842 80.3555 5.32741 80.8516 5.32741Z" fill="#E60013"/>
<path d="M182.747 20.041H176.345C173.508 20.041 172.222 19.0982 172.222 16.1452V9.39507C172.222 8.00983 171.899 7.70701 171.169 7.70701C169.481 7.70701 167.855 9.16313 167.855 10.7782V16.6799C167.855 18.2885 168.485 19.2464 168.676 19.4397C168.869 19.633 168.906 20.041 168.523 20.041H159.168C158.59 20.041 158.44 19.8585 158.44 19.3624C158.44 18.8662 158.401 6.90164 158.401 6.40124C158.401 5.90513 158.363 5.32741 159.091 5.32741H175.886C179.373 5.32741 181.768 7.20446 181.768 11.3473V16.4115C181.768 18.5956 182.788 19.1326 183.016 19.3624C183.248 19.5943 183.248 20.041 182.747 20.041Z" fill="#E60013"/>
<path d="M193.694 16.6778C193.694 18.2864 194.366 19.2442 194.559 19.4375C194.751 19.6308 194.787 20.0389 194.409 20.0389H185.052C184.476 20.0389 184.322 19.8563 184.322 19.3602C184.322 18.8663 184.322 9.56045 184.322 9.06005C184.322 7.09279 183.291 5.96957 183.087 5.78702C182.883 5.61091 182.906 5.32742 183.258 5.32742H192.895C193.348 5.32742 193.679 5.60232 193.679 6.10917C193.679 6.62246 193.694 15.0692 193.694 16.6778Z" fill="#E60013"/>
<path d="M116.473 14.1714C116.473 15.3204 117.353 16.1301 118.582 16.1301C120.918 16.1301 121.187 14.2917 121.187 12.4855C121.187 10.6815 120.459 9.38001 118.964 9.38001H116.473V14.1714ZM106.196 0.624006H115.627C116.204 0.624006 116.473 0.828034 116.473 1.44226V4.70241C116.473 5.00738 116.587 5.32738 116.971 5.32738H122.991C127.63 5.32738 130.886 6.92309 131.193 11.489C131.502 16.0506 129.546 19.1196 125.521 19.925C121.496 20.7282 118.352 19.0058 116.623 17.6614C116.434 19.3108 114.939 20.0388 113.024 20.0388H107.882C107.345 20.0388 106.924 19.8864 106.924 19.27V6.12201C106.924 3.20549 106.31 1.93837 105.928 1.40575C105.545 0.870987 105.734 0.624006 106.196 0.624006Z" fill="#E60013"/>
<path d="M142.315 9.64844V10.4925C142.315 10.9156 142.623 11.0294 142.814 11.1067C143.248 11.2807 144.959 11.4546 145.496 11.4546C146.035 11.4546 146.877 11.4546 146.877 10.4925C146.877 9.53246 146.149 9.26615 145.382 9.26615H142.736C142.468 9.26615 142.315 9.45944 142.315 9.64844ZM137.445 5.32735H150.483C153.868 5.32735 156.475 6.1993 156.423 9.82884V13.0503C156.423 13.6109 156.116 13.8664 155.657 13.8664H146.098C144.82 13.8664 144.36 13.4068 143.849 12.9988C143.336 12.5886 142.315 11.8219 142.315 11.8219V14.2745C142.315 15.8766 143.336 16.8302 144.463 16.8302C145.994 16.8302 146.42 16.3341 147.12 15.402C147.274 15.198 147.478 15.0927 147.631 15.0927H155.76C155.964 15.0927 156.273 15.2474 156.273 15.5545C156.273 17.5991 155.545 20.041 150.073 20.041H138.11C134.683 20.041 132.754 18.1596 132.754 14.2272V10.4925C132.754 7.664 134.279 5.32735 137.445 5.32735Z" fill="#E60013"/>
<path d="M188.759 0.291108C185.385 0.291108 184.24 1.00628 184.24 2.41299C184.24 3.82186 185.385 4.48334 188.759 4.48334C192.493 4.48334 193.387 3.84119 193.387 2.41299C193.387 0.980507 192.339 0.291108 188.759 0.291108Z" fill="#E60013"/>
</svg>
