<?xml version="1.0" encoding="UTF-8"?> <svg xmlns="http://www.w3.org/2000/svg" width="205" height="100" viewBox="0 0 205 100" fill="none"><path d="M107.053 40.1307C101.257 40.1307 97.7109 36.896 97.7109 30.546V18.2114H102.457V30.423C102.457 33.9345 104.215 35.7537 107.115 35.7537C110.015 35.7537 111.769 33.996 111.769 30.5768V18.2114H116.515V30.3922C116.515 36.9268 112.849 40.1307 107.053 40.1307Z" fill="#009DDC"></path><path d="M134.646 39.7922L124.196 26.073V39.7922H119.508V18.2114H123.885L134 31.4999V18.2114H138.685V39.7922H134.646Z" fill="#009DDC"></path><path d="M43.4492 65.5501H39.3108L34.4454 51.4308L29.5762 65.5501H25.4646L18.0762 43.8154H23.1569L27.6262 58.4308L32.4723 43.7539H36.5416L41.3839 58.4308L45.8492 43.8154H50.8185L43.4492 65.5501Z" fill="#009DDC"></path><path d="M61.4541 65.7651C54.7964 65.7651 50.0156 60.8036 50.0156 54.669V54.6075C50.0156 48.4536 54.8579 43.4536 61.5156 43.4536C68.1733 43.4536 72.9541 48.419 72.9541 54.5536V54.6152C72.9541 60.7421 68.1118 65.7651 61.4541 65.7651ZM67.9925 54.6113C67.9925 50.9113 65.281 47.8267 61.4541 47.8267C57.6272 47.8267 54.981 50.8498 54.981 54.5498V54.6113C54.981 58.3113 57.6925 61.3921 61.5195 61.3921C65.3464 61.3921 67.9925 58.3728 67.9925 54.6728V54.6113Z" fill="#009DDC"></path><path d="M91.9161 65.3962V51.3077L85.843 60.5385H85.7199L79.6968 51.4V65.3962H75.043V43.8154H80.1622L85.8507 52.9424L91.5199 43.8154H96.6199V65.3962H91.9161Z" fill="#009DDC"></path><path d="M100.301 65.3962V43.8154H116.578V48.0462H105.016V52.4193H115.193V56.6501H105.016V61.1808H116.732V65.4116L100.301 65.3962Z" fill="#009DDC"></path><path d="M134.584 65.3962L124.13 51.677V65.3962H119.445V43.8154H123.822L133.926 57.1039V43.8154H138.615V65.3962H134.584Z" fill="#009DDC"></path><path d="M168.203 24.7733C170.9 24.6682 173.581 24.3011 176.207 23.6772V18.0771H168.203V24.7733Z" fill="#009DDC"></path><path d="M184.312 24.4152C182.814 25.1601 181.259 25.7839 179.662 26.2806V32.4614C182.307 30.5121 184.504 28.0206 186.108 25.1537V23.396C185.539 23.7537 184.947 24.096 184.312 24.4152Z" fill="#009DDC"></path><path d="M176.211 34.5656C176.211 34.5656 176.211 34.5656 176.211 34.5426V27.2349C173.577 27.7989 170.899 28.1347 168.207 28.2387V36.8195C170.99 36.5641 173.703 35.8002 176.211 34.5656Z" fill="#009DDC"></path><path d="M179.666 18.0771V22.6348C181.999 21.8619 184.179 20.6908 186.112 19.1733V18.0771H179.666Z" fill="#009DDC"></path><path d="M164.031 18.0771H155.67V23.5848C158.411 24.257 161.212 24.6525 164.031 24.7656V18.0771Z" fill="#67B8E6"></path><path d="M152.212 22.5233V18.0771H146.143V19.1695C147.17 20.0167 148.292 20.7432 149.485 21.3348C150.37 21.7828 151.281 22.1796 152.212 22.5233Z" fill="#67B8E6"></path><path d="M164.031 28.2117C161.218 28.1034 158.42 27.7443 155.67 27.1387V34.3964C158.275 35.7342 161.114 36.557 164.031 36.8194V28.2117Z" fill="#67B8E6"></path><path d="M152.212 32.2041V26.181C150.084 25.4998 148.046 24.5635 146.143 23.3926V25.1887C147.669 27.9146 149.734 30.3015 152.212 32.2041Z" fill="#67B8E6"></path><path d="M155.635 58.596V54.696H164.031V50.7998H155.631V46.8998H164.031V40.2921C157.102 39.7479 150.67 36.4815 146.143 31.2075V65.3614H164.031V58.596H155.635Z" fill="#67B8E6"></path><path d="M168.203 40.2923V46.9H176.253V50.8H168.203V54.6962H176.253V58.5962H168.203V65.3616H186.111V31.1885C181.581 36.4724 175.142 39.746 168.203 40.2923Z" fill="#009DDC"></path><path d="M84.8418 72.7075H88.3533C91.1841 72.7075 93.1379 74.6498 93.1379 77.1844V77.2114C93.1379 79.746 91.1841 81.7114 88.3533 81.7114H84.8418V72.7075ZM86.8226 74.496V79.9229H88.361C88.7213 79.9445 89.082 79.8898 89.4197 79.7625C89.7574 79.6351 90.0644 79.4379 90.3206 79.1838C90.5769 78.9297 90.7767 78.6244 90.9069 78.2879C91.0372 77.9513 91.0949 77.591 91.0764 77.2306V77.2075C91.0952 76.846 91.0379 76.4845 90.9081 76.1465C90.7782 75.8086 90.5789 75.5017 90.3229 75.2457C90.0669 74.9897 89.76 74.7903 89.422 74.6605C89.084 74.5307 88.7226 74.4733 88.361 74.4921L86.8226 74.496Z" fill="#6D6E71"></path><path d="M94.8691 72.7075H101.661V74.4691H96.8384V76.296H101.069V78.0575H96.8384V79.9498H101.727V81.7114H94.8691V72.7075Z" fill="#6D6E71"></path><path d="M103.377 77.8537V72.7075H105.362V77.8037C105.362 79.2691 106.092 80.0267 107.304 80.0267C108.515 80.0267 109.246 79.296 109.246 77.8652V72.7075H111.235V77.7883C111.235 80.5152 109.696 81.8537 107.285 81.8537C104.873 81.8537 103.377 80.5037 103.377 77.8537Z" fill="#6D6E71"></path><path d="M115.235 74.5344H112.496V72.7075H119.958V74.5344H117.215V81.7114H115.235V74.5344Z" fill="#6D6E71"></path><path d="M120.777 80.3999L121.931 78.9999C122.667 79.6768 123.624 80.0648 124.623 80.0922C125.435 80.0922 125.923 79.7691 125.923 79.2422V79.2153C125.923 78.7153 125.616 78.4461 124.108 78.0614C122.297 77.5961 121.123 77.0961 121.123 75.3076V75.2807C121.123 73.6461 122.435 72.5884 124.277 72.5884C125.492 72.5721 126.674 72.9801 127.62 73.7422L126.62 75.2153C125.946 74.6895 125.13 74.3797 124.277 74.3268C123.508 74.3268 123.123 74.6768 123.123 75.0961V75.123C123.123 75.7153 123.508 75.8922 125.066 76.3076C126.893 76.7845 127.924 77.4384 127.924 78.9999V79.0614C127.924 80.8499 126.558 81.8538 124.616 81.8538C123.201 81.8604 121.833 81.3425 120.777 80.3999Z" fill="#6D6E71"></path><path d="M129.073 77.2344V77.2113C129.062 76.5933 129.176 75.9795 129.409 75.4069C129.641 74.8342 129.987 74.3146 130.426 73.8793C130.865 73.4441 131.387 73.1022 131.962 72.8744C132.537 72.6465 133.151 72.5374 133.769 72.5536C134.425 72.5209 135.081 72.6277 135.693 72.867C136.305 73.1064 136.859 73.4728 137.319 73.9421L136.058 75.3959C135.452 74.7664 134.623 74.4015 133.75 74.3806C132.235 74.3806 131.138 75.6421 131.138 77.1844V77.2113C131.138 78.7498 132.208 80.0382 133.75 80.0382C134.781 80.0382 135.412 79.6267 136.119 78.9844L137.381 80.2575C136.927 80.787 136.359 81.2068 135.719 81.4853C135.08 81.7637 134.385 81.8936 133.688 81.8652C133.078 81.8746 132.473 81.7611 131.908 81.5315C131.342 81.3019 130.829 80.9609 130.398 80.5288C129.968 80.0967 129.629 79.5823 129.401 79.0164C129.173 78.4504 129.062 77.8444 129.073 77.2344Z" fill="#6D6E71"></path><path d="M138.826 72.7075H140.807V76.2691H144.461V72.7075H146.442V81.7114H144.461V78.096H140.807V81.7114H138.826V72.7075Z" fill="#6D6E71"></path><path d="M148.65 72.7075H150.635V79.9114H155.123V81.7114H148.65V72.7075Z" fill="#6D6E71"></path><path d="M159.934 72.6421H161.761L165.607 81.7113H163.542L162.719 79.6921H158.926L158.103 81.7113H156.084L159.934 72.6421ZM162.003 77.9421L160.807 75.0229L159.611 77.9421H162.003Z" fill="#6D6E71"></path><path d="M166.904 72.7075H168.731L172.962 78.2537V72.7075H174.916V81.7114H173.231L168.858 75.9844V81.7075H166.904V72.7075Z" fill="#6D6E71"></path><path d="M177.115 72.7075H180.627C183.458 72.7075 185.411 74.6498 185.411 77.1844V77.2114C185.411 79.746 183.458 81.7114 180.627 81.7114H177.115V72.7075ZM179.096 74.496V79.9229H180.634C180.994 79.9439 181.355 79.8888 181.692 79.7612C182.029 79.6336 182.336 79.4364 182.592 79.1823C182.847 78.9283 183.047 78.6232 183.177 78.2869C183.307 77.9506 183.364 77.5907 183.346 77.2306V77.2075C183.365 76.8463 183.308 76.4852 183.178 76.1475C183.048 75.8098 182.849 75.5031 182.594 75.2472C182.338 74.9912 182.032 74.7918 181.694 74.6617C181.357 74.5317 180.996 74.4739 180.634 74.4921L179.096 74.496Z" fill="#6D6E71"></path></svg> 