<?xml version="1.0" encoding="UTF-8" standalone="no"?>
<!-- Created with Inkscape (http://www.inkscape.org/) -->

<svg
   width="251.35416mm"
   height="39.3088mm"
   viewBox="0 0 251.35416 39.3088"
   version="1.1"
   id="svg1"
   xml:space="preserve"
   inkscape:version="1.3 (0e150ed6c4, 2023-07-21)"
   sodipodi:docname="Citibank 1976.svg"
   xmlns:inkscape="http://www.inkscape.org/namespaces/inkscape"
   xmlns:sodipodi="http://sodipodi.sourceforge.net/DTD/sodipodi-0.dtd"
   xmlns="http://www.w3.org/2000/svg"
   xmlns:svg="http://www.w3.org/2000/svg"><sodipodi:namedview
     id="namedview1"
     pagecolor="#ffffff"
     bordercolor="#000000"
     borderopacity="0.25"
     inkscape:showpageshadow="2"
     inkscape:pageopacity="0.0"
     inkscape:pagecheckerboard="0"
     inkscape:deskcolor="#d1d1d1"
     inkscape:document-units="mm"
     inkscape:zoom="1.3397168"
     inkscape:cx="481.81824"
     inkscape:cy="87.705101"
     inkscape:window-width="1920"
     inkscape:window-height="1009"
     inkscape:window-x="-8"
     inkscape:window-y="-8"
     inkscape:window-maximized="1"
     inkscape:current-layer="layer1" /><defs
     id="defs1" /><g
     inkscape:label="Layer 1"
     inkscape:groupmode="layer"
     id="layer1"
     transform="translate(-19.99256,-116.06897)"><path
       id="rect1"
       style="opacity:1;fill:#000000;stroke-width:2.97609"
       d="m 39.887001,116.25151 c -7.698599,0 -11.032328,3.33825 -13.364606,5.77137 -2.534321,2.64391 -4.982593,7.314 -5.989938,12.40966 -1.193976,6.03972 -0.392218,10.80171 2.252444,14.48022 2.251878,3.13219 6.087,5.4093 12.140526,5.4093 5.754757,0 9.467605,-1.66419 12.334619,-4.363 4.371105,-4.11465 5.437016,-9.95576 5.437016,-9.95576 h -7.938193 c 0,0 -0.739381,2.93585 -2.944811,5.20948 -1.393462,1.43657 -3.457143,2.59007 -5.787689,2.59007 -2.784034,0 -5.226431,-0.93672 -6.827467,-3.86308 -1.277849,-2.33565 -1.601259,-4.73937 -0.831005,-8.43403 1.35767,-6.51225 4.523749,-13.13789 11.824923,-13.13789 7.551745,0 7.253978,7.58834 7.253978,7.58834 h 6.960393 c 0,0 1.299846,-13.70468 -14.52019,-13.70468 z m 19.444253,1.03325 -7.212389,36.46562 h 7.72779 l 7.212389,-36.46562 z m 9.649137,0 -1.295849,6.55182 h 10.303177 l -5.916539,29.9138 h 7.728606 l 5.915725,-29.9138 h 10.463833 l 1.295848,-6.55182 z m 30.52298,0 -7.21239,36.46562 h 7.728609 l 7.21157,-36.46562 z m 12.890799,0 -7.21157,36.46562 h 13.92404 c 3.04448,0 8.77899,-0.25315 11.91627,-2.8127 3.98862,-3.25413 4.86697,-7.35894 4.86697,-9.18186 0,-1.98254 -0.52893,-3.99431 -1.67098,-5.0945 -1.19722,-1.1533 -2.46424,-1.69976 -3.88021,-1.95967 0.95626,-0.22594 1.99182,-0.51635 3.1968,-1.23223 2.07491,-1.23272 3.81496,-4.57319 3.81498,-6.86498 -1e-5,-6.68072 -4.92366,-9.31968 -11.03225,-9.31968 z m 40.6182,0 -19.23467,36.46562 h 8.41364 l 3.78316,-7.77673 h 12.06223 l 0.85466,7.77673 h 8.12984 l -5.51531,-36.46562 h -4.01312 -0.4673 z m 21.96744,0 -7.21239,36.46562 h 7.48396 l 3.44147,-17.40221 c 0.327,-1.65352 0.7502,-5.22338 1.13599,-8.83281 0.26102,1.42476 0.67583,3.04831 1.40514,4.96973 0.43245,1.13931 4.46876,12.46079 7.88111,21.2343 l 7.47742,0.031 7.21158,-36.46562 h -7.48314 l -3.44227,17.40303 c -0.27392,1.38489 -0.61673,4.1353 -0.94763,7.10636 -1.26221,-3.74534 -2.31724,-7.17276 -3.36399,-9.93048 -1.48369,-3.90891 -3.50961,-8.46007 -5.94834,-14.54792 z m 42.3055,0 -14.87087,16.18466 9.85058,20.28096 h 7.98467 l -9.56595,-19.72234 15.60483,-16.74328 z m -98.85798,6.55182 h 6.59504 c 1.81802,0 5.04231,0.23697 5.04231,3.64535 1e-5,2.452 -2.24597,4.5114 -5.51367,4.5114 h -7.73677 z m 37.49642,0.78208 c -0.0655,1.52413 0.071,2.78094 0.30337,4.89552 l 1.09278,9.94435 h -8.17551 l 4.83844,-9.94435 c 0.93629,-1.92431 1.49164,-3.33767 1.94092,-4.89552 z m -40.26591,13.22026 h 7.56061 c 2.2552,0 2.89006,0.39291 3.80927,1.15477 0.77266,0.6404 1.22489,1.48775 1.2249,3.10792 0,1.57904 -1.21931,2.92187 -1.96865,3.54748 -1.64604,1.37425 -4.0788,1.55029 -5.8823,1.55029 h -6.59504 z"
       sodipodi:nodetypes="ssssssccsssssccscccccccccccccccccccccsssscssscccccccccccccccscsccccscsccccccccccssscccccccccssssscc" /><ellipse
       style="opacity:1;fill:#000000;fill-opacity:1;stroke-width:7.2798"
       id="path15"
       cx="247.38408"
       cy="135.72337"
       rx="23.962645"
       ry="19.6544" /><path
       id="path16"
       style="opacity:1;fill:#ffffff;fill-opacity:1;stroke-width:6.31245"
       d="m 247.38409,119.26389 -2.25897,14.1687 -18.21691,2.29077 18.21691,2.29077 2.25897,14.16872 2.25897,-14.16872 18.21691,-2.29077 -18.21691,-2.29077 z" /></g></svg>
