<?xml version="1.0" encoding="UTF-8" standalone="no"?>
<!-- Created with Inkscape (http://www.inkscape.org/) -->
<svg
   xmlns:svg="http://www.w3.org/2000/svg"
   xmlns="http://www.w3.org/2000/svg"
   version="1.0"
   width="1488.189"
   height="241.29921"
   id="svg2">
  <defs
     id="defs4" />
  <g
     transform="translate(150.235,-295.18646)"
     id="layer1">
    <g
       transform="translate(35.433082,35.43393)"
       id="g2551">
      <path
         d="M -96.933521,354.84426 C -87.386981,354.84426 -75.855611,354.24961 -75.855611,341.5209 C -75.855611,329.38684 -86.197681,328.3904 -95.744221,328.3904 L -107.87025,328.3904 L -107.87025,354.84426 L -96.933521,354.84426 z M -107.87025,433.59513 L -150.235,433.59513 L -150.235,297.1713 L -94.554921,297.1713 C -81.223521,297.1713 -66.309071,297.56506 -54.576801,304.3312 C -41.848091,311.88486 -34.294431,325.41715 -34.294431,340.13071 C -34.294431,353.05228 -39.260561,365.38724 -49.409781,373.53554 C -59.944711,382.08564 -73.468971,384.07851 -86.591441,384.07851 L -107.87025,384.07851"
         id="path2436"
         style="fill:#0096d7;fill-opacity:1;fill-rule:nonzero;stroke:none" />
      <path
         d="M 32.129519,433.59513 L 32.129519,370.35336 C 32.129519,363.59525 30.739329,357.82555 22.582979,357.82555 C 18.806159,357.82555 15.423079,359.61753 13.237349,362.79971 C 11.051609,365.5801 10.850709,369.16406 11.051609,372.54714 L 11.051609,433.59513 L -28.331861,433.59513 L -28.331861,297.1713 L 11.051609,297.1713 L 11.051609,343.90753 C 18.605259,334.75475 27.758039,329.98149 39.683169,329.98149 C 49.631499,329.98149 60.166439,332.76991 65.743279,341.11911 C 71.504949,349.8701 71.504949,359.61753 71.504949,369.95961 L 71.504949,433.59513"
         id="path2440"
         style="fill:#0096d7;fill-opacity:1;fill-rule:nonzero;stroke:none" />
      <path
         d="M 118.8278,433.59513 L 79.452359,433.59513 L 79.452359,331.97437 L 118.8278,331.97437 L 118.8278,433.59513 z M 118.8278,322.23497 L 79.452359,322.23497 L 79.452359,295.18646 L 118.8278,295.18646 L 118.8278,322.23497 z"
         id="path2442"
         style="fill:#0096d7;fill-opacity:1;fill-rule:nonzero;stroke:none" />
      <path
         d="M 166.95423,433.59513 L 127.57879,433.59513 L 127.57879,297.1713 L 166.95423,297.1713 L 166.95423,433.59513 z"
         id="path2444"
         style="fill:#0096d7;fill-opacity:1;fill-rule:nonzero;stroke:none" />
      <path
         d="M 215.08065,433.59513 L 175.70522,433.59513 L 175.70522,331.97437 L 215.08065,331.97437 L 215.08065,433.59513 z M 215.08065,322.23497 L 175.70522,322.23497 L 175.70522,295.18646 L 215.08065,295.18646 L 215.08065,322.23497 z"
         id="path2446"
         style="fill:#0096d7;fill-opacity:1;fill-rule:nonzero;stroke:none" />
      <path
         d="M 264.99103,394.0188 C 264.99103,401.1787 266.18836,410.53238 275.72686,410.53238 C 281.29567,410.53238 284.87964,407.54306 286.47073,402.17514 C 288.06182,396.60633 288.45557,389.44643 288.45557,383.68476 C 288.45557,375.32752 288.65647,355.24605 276.12865,355.24605 C 272.74558,355.24605 269.5634,356.83714 267.37766,359.41663 C 264.79013,362.59881 264.99103,365.78099 264.99103,369.75871 L 264.99103,394.0188 z M 262.00974,331.97437 L 262.00974,346.49506 L 262.4035,346.49506 C 266.58211,334.1601 277.71974,329.98149 291.24399,329.98149 C 319.87556,329.98149 329.4221,357.82555 329.4221,381.69188 C 329.4221,393.0304 327.63815,405.96001 322.27023,415.9003 C 315.70498,428.02632 305.16201,435.58801 291.0431,435.58801 C 280.50816,435.58801 270.96163,431.61029 264.79013,422.65841 L 264.79013,465.61781 L 225.41469,465.61781 L 225.41469,331.97437"
         id="path2450"
         style="fill:#0096d7;fill-opacity:1;fill-rule:nonzero;stroke:none" />
      <path
         d="M 487.73546,433.59513 L 448.75377,433.59513 L 448.75377,336.15298 L 448.35198,336.15298 L 423.49724,433.59513 L 396.85052,433.59513 L 371.20024,336.15298 L 370.79845,336.15298 L 370.79845,433.59513 L 339.37846,433.59513 L 339.37846,297.1713 L 394.07013,297.1713 L 413.55696,369.55782 L 413.95875,369.55782 L 432.65002,297.1713 L 487.73546,297.1713"
         id="path2454"
         style="fill:#0096d7;fill-opacity:1;fill-rule:nonzero;stroke:none" />
      <path
         d="M 535.05027,382.28653 C 535.05027,409.53594 541.60748,411.52078 548.76743,411.52078 C 555.92733,411.52078 562.49253,409.53594 562.49253,382.28653 C 562.49253,372.54714 562.29163,354.84426 548.76743,354.84426 C 535.24312,354.84426 535.05027,372.54714 535.05027,382.28653 M 604.64833,383.68476 C 604.64833,414.50207 579.79363,435.58801 548.76743,435.58801 C 517.74918,435.58801 492.88641,414.50207 492.88641,383.68476 C 492.88641,351.06743 516.9456,329.98952 548.76743,329.98952 C 580.58913,329.98952 604.64833,351.06743 604.64833,383.68476"
         id="path2458"
         style="fill:#0096d7;fill-opacity:1;fill-rule:nonzero;stroke:none" />
      <path
         d="M 643.42913,352.85138 C 646.81223,338.73248 654.16493,328.79219 669.88303,329.98149 L 675.25093,330.38328 L 675.25093,365.98189 C 672.86433,365.38724 670.28483,364.99348 667.68923,364.99348 C 661.33293,364.99348 654.76763,366.17474 651.58553,371.94445 C 648.79703,376.91861 648.79703,383.48386 648.79703,389.44643 L 648.79703,433.59513 L 609.42163,433.59513 L 609.42163,331.97437 L 643.03543,331.97437 L 643.03543,352.85138"
         id="path2462"
         style="fill:#0096d7;fill-opacity:1;fill-rule:nonzero;stroke:none" />
      <path
         d="M 714.43353,352.85138 C 717.80853,338.73248 725.17733,328.79219 740.87933,329.98149 L 746.24723,330.38328 L 746.24723,365.98189 C 743.86863,365.38724 741.28113,364.99348 738.69363,364.99348 C 732.32923,364.99348 725.77203,366.17474 722.58983,371.94445 C 719.80143,376.91861 719.80143,383.48386 719.80143,389.44643 L 719.80143,433.59513 L 680.42603,433.59513 L 680.42603,331.97437 L 714.03173,331.97437 L 714.03173,352.85138"
         id="path2466"
         style="fill:#0096d7;fill-opacity:1;fill-rule:nonzero;stroke:none" />
      <path
         d="M 793.17633,433.59513 L 753.80093,433.59513 L 753.80093,331.97437 L 793.17633,331.97437 L 793.17633,433.59513 z M 793.17633,322.23497 L 753.80093,322.23497 L 753.80093,295.18646 L 793.17633,295.18646 L 793.17633,322.23497 z"
         id="path2468"
         style="fill:#0096d7;fill-opacity:1;fill-rule:nonzero;stroke:none" />
      <path
         d="M 826.39633,400.58405 C 828.58213,410.33148 839.51883,411.52078 848.07693,411.52078 C 852.05463,411.52078 863.19233,411.12703 863.19233,405.15643 C 863.19233,399.99744 849.66803,398.99297 846.08403,398.59921 C 824.80523,395.61793 799.54873,391.43127 799.54873,364.3908 C 799.54873,352.85138 805.72023,343.70664 815.25873,337.74407 C 825.20703,331.58061 836.54553,329.98952 847.87603,329.98952 C 866.96913,329.98952 887.05063,337.34228 893.81673,356.43535 L 863.78693,362.20506 C 860.80563,355.24605 853.05113,353.25317 846.08403,353.25317 C 842.90193,353.25317 833.36343,354.24961 833.36343,358.62109 C 833.36343,361.80327 836.73843,363.2015 839.32593,363.79615 C 843.70543,364.99348 851.65283,365.5801 856.42613,366.18278 C 865.57893,367.37208 875.92103,368.76227 884.06933,373.73644 C 893.42303,379.699 898.39713,388.65089 898.39713,399.58761 C 898.39713,427.63257 868.76113,435.58801 845.89123,435.58801 C 823.21413,435.58801 802.33713,428.22722 794.77543,404.76267"
         id="path2472"
         style="fill:#0096d7;fill-opacity:1;fill-rule:nonzero;stroke:none" />
      <path
         d="M 1016.5074,384.87406 C 1016.5074,400.78495 1014.7154,413.51366 1001.5929,424.05664 C 989.86063,433.20138 975.54083,435.58801 961.22103,435.58801 C 948.69323,435.58801 932.38863,432.80763 921.84563,425.84058 C 907.33293,416.29405 904.54453,403.37248 904.54453,387.0598 L 904.54453,297.1713 L 947.10213,297.1713 L 947.10213,382.28653 C 947.10213,386.86694 946.90123,393.0304 949.68163,397.20098 C 952.86383,401.58049 959.23623,403.37248 964.60413,403.37248 C 969.37743,403.37248 975.33993,401.97425 978.92393,398.80011 C 984.29993,394.2197 983.69723,387.0598 983.69723,380.69544 L 983.69723,297.1713 L 1016.5074,297.1713"
         id="path2476"
         style="fill:#0096d7;fill-opacity:1;fill-rule:nonzero;stroke:none" />
      <path
         d="M 1060.2543,387.0598 C 1063.8382,399.19386 1072.991,403.56534 1085.117,403.56534 C 1090.485,403.56534 1101.2208,402.76979 1101.2208,395.21614 C 1101.2208,386.86694 1090.6859,385.27585 1084.5224,384.07851 C 1058.8641,379.10435 1028.4405,372.14535 1028.4405,339.72892 C 1028.4405,326.40555 1034.9977,313.28309 1045.9425,305.5205 C 1057.0801,297.76595 1071.5928,295.18646 1085.117,295.18646 C 1108.7825,295.18646 1131.6524,304.92585 1140.0096,328.59129 L 1105.4074,339.13427 C 1101.4217,328.99308 1093.868,325.40911 1083.3251,325.40911 C 1077.7562,325.40911 1069.8008,327.0002 1069.8008,334.1601 C 1069.8008,341.32001 1079.7491,342.71824 1084.9161,343.90753 C 1097.8458,346.49506 1111.5629,348.6808 1123.496,354.84426 C 1136.8194,362.00416 1143.7864,374.73288 1143.7864,389.64733 C 1143.7864,422.46555 1111.1691,435.58801 1082.9233,435.58801 C 1054.2917,435.58801 1028.8343,423.65485 1021.4735,394.0188"
         id="path2480"
         style="fill:#0096d7;fill-opacity:1;fill-rule:nonzero;stroke:none" />
      <path
         d="M 1209.4148,376.91861 L 1198.2772,337.34228 L 1187.1396,376.91861 L 1209.4148,376.91861 z M 1216.5747,406.74752 L 1180.1806,406.74752 L 1171.8314,433.59513 L 1137.8239,433.59513 L 1180.1806,297.1713 L 1224.3373,297.1713 L 1267.0878,433.59513 L 1224.3373,433.59513"
         id="path2484"
         style="fill:#0096d7;fill-opacity:1;fill-rule:nonzero;stroke:none" />
    </g>
  </g>
</svg>
